# AST/ASF file generated using VICON BodyLanguage
# -----------------------------------------------
:version 1.10
:name VICON
:units
  mass 1.0
  length 0.45
  angle deg
:documentation
   .ast/.asf automatically generated from VICON data using
   VICON BodyBuilder and BodyLanguage model FoxedUp or BRILLIANT.MOD
:root
   order TX TY TZ RX RY RZ
   axis XYZ
   position 0 0 0  
   orientation 0 0 0 
:bonedata
  begin
     id 1 
     name lhipjoint
     direction 0.561145 -0.797705 0.220866 
     length 2.46425 
     axis 0 0 0  XYZ
  end
  begin
     id 2 
     name lfemur
     direction 0.34202 -0.939693 0  
     length 7.95556  
     axis 0 0 20  XYZ
    dof rx ry rz
    limits (-160.0 20.0)
           (-70.0 70.0)
           (-60.0 70.0)
  end
  begin
     id 3 
     name ltibia
     direction 0.34202 -0.939693 0   
     length 7.9832   
     axis 0 0 20   XYZ
    dof rx
    limits (-10.0 170.0)
  end
  begin
     id 4 
     name lfoot
     direction 0.0723927 -0.198897 0.977343   
     length 2.23085   
     axis -90 7.62852e-016 20   XYZ
    dof rx rz
    limits (-45.0 90.0)
           (-70.0 20.0)
  end
  begin
     id 5 
     name ltoes
     direction 1.53826e-011 -4.21988e-011 1   
     length 1.12127   
     axis -90 7.62852e-016 20   XYZ
    dof rx
    limits (-90.0 20.0)
  end
  begin
     id 6 
     name rhipjoint
     direction -0.610499 -0.763299 0.21134   
     length 2.57533  
     axis 0 0 0  XYZ 
  end
  begin
     id 7 
     name rfemur
     direction -0.34202 -0.939693 0   
     length 8.65257   
     axis 0 0 -20   XYZ
    dof rx ry rz
    limits (-160.0 20.0)
           (-70.0 70.0)
           (-70.0 60.0)
  end
  begin
     id 8 
     name rtibia
     direction -0.342021 -0.939692 0   
     length 7.37807   
     axis 0 0 -20   XYZ
    dof rx
    limits (-10.0 170.0)
 end
 begin
     id 9 
     name rfoot
     direction -0.0239304 -0.0543852 0.998233   
     length 1.87018  
     axis -90 -7.62852e-016 -20   XYZ
    dof rx rz
    limits (-45.0 90.0)
           (-20.0 70.0)
  end
  begin
     id 10 
     name rtoes
     direction -1.53584e-011 -4.2242e-011 1   
     length 0.951568   
     axis -90 -7.62852e-016 -20   XYZ
    dof rx
    limits (-90.0 20.0)
  end
  begin
     id 11 
     name lowerback
     direction 0.00322089 0.999033 0.0438587   
     length 2.07568   
     axis 0 0 0   XYZ
    dof rx ry rz
    limits (-20.0 45.0)
           (-30.0 30.0)
           (-30.0 30.0)
  end
  begin
     id 12 
     name upperback
     direction -0.00321932 0.999732 -0.0229403   
     length 2.06253   
     axis 0 0 0   XYZ
    dof rx ry rz
    limits (-20.0 45.0)
           (-30.0 30.0)
           (-30.0 30.0)
  end
  begin
     id 13 
     name thorax
     direction -0.00537537 0.998955 -0.0453918   
     length 2.06975   
     axis 0 0 0   XYZ
    dof rx ry rz
    limits (-20.0 45.0)
           (-30.0 30.0)
           (-30.0 30.0)
  end
  begin
     id 14 
     name lowerneck
     direction -0.00013604 0.994111 0.108363   
     length 1.50836   
     axis 0 0 0   XYZ
    dof rx ry rz
    limits (-20.0 45.0)
           (-30.0 30.0)
           (-30.0 30.0)
  end
  begin
     id 15 
     name upperneck
     direction 0.0397262 0.983859 -0.174482   
     length 1.53037   
     axis 0 0 0   XYZ
    dof rx ry rz
    limits (-20.0 45.0)
           (-30.0 30.0)
           (-30.0 30.0)
  end
  begin
     id 16
     name head
     direction 0.0109991 0.997082 -0.0755378  
     length 1.56928  
     axis 0 0 0   XYZ
    dof rx ry rz
    limits (-20.0 45.0)
           (-30.0 30.0)
           (-30.0 30.0)
  end
  begin
     id 17 
     name lclavicle
     direction 0.964749 0.254 -0.068874  
     length 3.26503  
     axis 0 0 0   XYZ
    dof ry rz
    limits (-20.0 10.0)
           (0.0 20.0)
  end
  begin
     id 18 
     name lhumerus
     direction 1 -4.48941e-011 -2.05079e-027   
     length 5.68236   
     axis 180 -30 -90   XYZ
    dof rx ry rz
    limits (-60.0 90.0)
           (-90.0 90.0)
           (-90.0 90.0)
  end
  begin
     id 19
     name lradius
     direction 1 -4.48956e-011 6.2882e-027   
     length 3.17112   
     axis 180 -30 -90   XYZ
    dof rx
    limits (-10.0 170.0)
  end
  begin
     id 20
     name lwrist
     direction 1 -4.49014e-011 1.73219e-026   
     length 1.58556   
     axis -1.04724e-014 90 90   XYZ
    dof ry
    limits (-180.0 0.0)
 end
  begin
     id 21 
     name lhand
     direction 1 -4.49312e-011 3.46438e-026   
     length 0.632691   
     axis -2.21057e-014 90 90   XYZ
    dof rx rz
    limits (-90.0 90.0)
           (-45.0 45.0)
  end
  begin
     id 22 
     name lfingers
     direction 1 -4.48894e-011 6.92876e-026   
     length 0.510091   
     axis -4.42114e-014 90 90   XYZ
    dof rx
    limits (0.0 90.0)
  end
  begin
     id 23
     name lthumb
     direction 0.707107 -6.34705e-011 0.707107   
     length 0.732392   
     axis -90 45 2.85299e-015   XYZ
    dof rx rz
    limits (-45.0 45.0)
           (-45.0 45.0)
  end
  begin
     id 24 
     name rclavicle
     direction -0.954374 0.280496 -0.102435   
     length 3.25419  
     axis 0 0 0   XYZ 
    dof ry rz
    limits (-10.0 20.0)
           (-20.0 0.0)
  end
  begin
     id 25 
     name rhumerus
     direction -1 -4.48994e-011 -1.07204e-017  
     length 5.8712   
     axis 180 30 90   XYZ
    dof rx ry rz
    limits (-90.0 60.0)
           (-90.0 90.0)
           (-90.0 90.0)
  end
  begin
     id 26 
     name rradius
     direction -1 -4.48972e-011 5.89292e-027   
     length 3.37589   
     axis 180 30 90   XYZ
    dof rx
    limits (-10.0 170.0)
  end
  begin
     id 27 
     name rwrist
     direction -1 -4.48942e-011 1.73219e-026   
     length 1.68794   
     axis -1.04724e-014 -90 -90   XYZ
    dof ry
    limits (-180.0 0.0)
  end
  begin
     id 28
     name rhand
     direction -1 -4.48514e-011 3.46438e-026   
     length 0.603257   
     axis -2.21057e-014 -90 -90   XYZ
    dof rx rz
    limits (-90.0 90.0)
           (-45.0 45.0)
  end
  begin
     id 29
     name rfingers
     direction -1 -4.50028e-011 6.92876e-026   
     length 0.486362   
     axis -4.42114e-014 -90 -90   XYZ
    dof rx
    limits (0.0 90.0)
  end
  begin
     id 30
     name rthumb
     direction -0.707107 -6.34926e-011 0.707107   
     length 0.698321   
     axis -90 -45 -2.85299e-015   XYZ
    dof rx rz
    limits (-45.0 45.0)
           (-45.0 45.0)
  end
:hierarchy
  begin
    root lhipjoint rhipjoint lowerback
    lhipjoint lfemur
    lfemur ltibia
    ltibia lfoot
    lfoot ltoes
    rhipjoint rfemur
    rfemur rtibia
    rtibia rfoot
    rfoot rtoes
    lowerback upperback
    upperback thorax
    thorax lowerneck lclavicle rclavicle
    lowerneck upperneck
    upperneck head
    lclavicle lhumerus
    lhumerus lradius
    lradius lwrist
    lwrist lhand lthumb
    lhand lfingers
    rclavicle rhumerus
    rhumerus rradius
    rradius rwrist
    rwrist rhand rthumb
    rhand rfingers
  end

#!OML:ASF I:\Segmentation\Patient Classification 1\Patient 1\Session 1\Patient1.ASF
:FULLY-SPECIFIED
:DEGREES
150
root 0.628284 18.3931 6.37552 10.3804 60.6748 -0.265361
lowerback -8.0187 -1.31846 -4.24171
upperback 1.66773 -1.35569 0.556522
thorax 6.37146 -0.837169 2.78743
lowerneck -19.3775 1.81934 0.211135
upperneck 17.9145 2.37981 0.417418
head 8.79392 1.18908 0.420147
rclavicle 9.0447e-015 -2.98177e-015
rhumerus -37.1802 -11.5618 -76.6659
rradius 37.9674
rwrist 13.6047
rhand -18.5526 29.5412
rfingers 7.12502
rthumb 7.73699 -0.297221
lclavicle 9.0447e-015 -2.98177e-015
lhumerus -15.4731 -12.2539 83.6447
lradius 37.9048
lwrist 11.789
lhand -14.0132 33.7853
lfingers 7.12502
lthumb 12.1164 63.4145
rfemur -35.9399 6.50179 15.9326
rtibia 31.4684
rfoot -2.80521 -0.264631
rtoes 37.8279
lfemur -15.7785 2.50573 -27.1445
ltibia 25.3082
lfoot -22.3933 3.38199
ltoes -6.35777
151
root 0.719035 18.3979 6.40916 10.475 60.9524 -0.194699
lowerback -8.01213 -1.34166 -4.20249
upperback 1.6733 -1.39284 0.586122
thorax 6.37636 -0.854812 2.79138
lowerneck -19.3357 1.76555 0.0975215
upperneck 17.9137 2.31818 0.514504
head 8.7836 1.16326 0.463266
rclavicle 5.63803e-014 1.98785e-016
rhumerus -37.1794 -11.528 -76.7
rradius 38.0039
rwrist 13.6701
rhand -18.4826 29.653
rfingers 7.12502
rthumb 7.80458 -0.182955
lclavicle 5.63803e-014 1.98785e-016
lhumerus -15.3765 -12.3055 83.6518
lradius 38.2812
lwrist 11.9071
lhand -14.0353 33.8894
lfingers 7.12502
lthumb 12.0951 63.5198
rfemur -36.0637 6.83133 15.6848
rtibia 29.4743
rfoot -2.35468 -0.729886
rtoes 38.4327
lfemur -15.2028 2.40907 -27.1643
ltibia 24.7705
lfoot -22.3106 3.22131
ltoes -6.20324
152
root 0.810284 18.4019 6.44335 10.5799 61.238 -0.108858
lowerback -8.00069 -1.37032 -4.17753
upperback 1.68835 -1.43597 0.617549
thorax 6.38948 -0.876292 2.80444
lowerneck -19.3526 1.72 0.00322624
upperneck 17.946 2.26533 0.597033
head 8.79559 1.14107 0.500356
rclavicle -5.02428e-014 3.598e-014
rhumerus -37.1684 -11.4517 -76.745
rradius 38.0445
rwrist 13.6771
rhand -18.3988 29.7819
rfingers 7.12502
rthumb 7.88545 -0.0509987
lclavicle -5.02428e-014 3.598e-014
lhumerus -15.2833 -12.3565 83.6624
lradius 38.6541
lwrist 12.0273
lhand -14.0863 33.9816
lfingers 7.12502
lthumb 12.0459 63.6149
rfemur -36.148 7.15988 15.4208
rtibia 27.4791
rfoot -1.97673 -1.17783
rtoes 38.9084
lfemur -14.6422 2.25727 -27.1772
ltibia 24.2482
lfoot -22.2518 3.06068
ltoes -5.77594
153
root 0.902246 18.4051 6.47795 10.708 61.5245 0.0142881
lowerback -7.97524 -1.40095 -4.16923
upperback 1.70834 -1.48015 0.642474
thorax 6.40027 -0.898819 2.82009
lowerneck -19.4168 1.68203 -0.0437133
upperneck 18.0179 2.21751 0.641911
head 8.83068 1.12023 0.518413
rclavicle 3.38431e-014 -9.54166e-015
rhumerus -37.1517 -11.3623 -76.8013
rradius 38.0828
rwrist 13.6499
rhand -18.3134 29.9343
rfingers 7.12502
rthumb 7.96787 0.104524
lclavicle 3.38431e-014 -9.54166e-015
lhumerus -15.2078 -12.4153 83.6733
lradius 39.0161
lwrist 12.1417
lhand -14.1413 34.0174
lfingers 7.12502
lthumb 11.9929 63.6538
rfemur -36.1928 7.5082 15.121
rtibia 25.5061
rfoot -1.70749 -1.59179
rtoes 39.3023
lfemur -14.0787 2.11807 -27.2053
ltibia 23.7284
lfoot -22.1777 2.87431
ltoes -5.19887
154
root 0.99496 18.4071 6.51303 10.8632 61.8118 0.176575
lowerback -7.94294 -1.43007 -4.17255
upperback 1.72875 -1.52091 0.65972
thorax 6.40746 -0.919876 2.83482
lowerneck -19.4921 1.64625 -0.0607947
upperneck 18.1078 2.16961 0.661861
head 8.87469 1.09866 0.523351
rclavicle -7.62836e-015 2.18663e-015
rhumerus -37.1359 -11.2934 -76.8551
rradius 38.1104
rwrist 13.6223
rhand -18.2445 30.1128
rfingers 7.12502
rthumb 8.03438 0.285554
lclavicle -7.62836e-015 2.18663e-015
lhumerus -15.1581 -12.4844 83.692
lradius 39.3585
lwrist 12.2446
lhand -14.1893 33.9846
lfingers 7.12502
lthumb 11.9465 63.6238
rfemur -36.2096 7.89416 14.7748
rtibia 23.5756
rfoot -1.55773 -1.96842
rtoes 39.7268
lfemur -13.4983 2.03772 -27.2574
ltibia 23.1964
lfoot -22.0672 2.65216
ltoes -4.64732
155
root 1.08828 18.4079 6.54864 11.0446 62.1091 0.364894
lowerback -7.91623 -1.45499 -4.17678
upperback 1.74084 -1.55576 0.675543
thorax 6.40854 -0.937765 2.84938
lowerneck -19.5172 1.6026 -0.100786
upperneck 18.166 2.11524 0.692371
head 8.89856 1.07382 0.533965
rclavicle -4.05024e-014 1.00386e-014
rhumerus -37.1425 -11.2709 -76.8773
rradius 38.1243
rwrist 13.6334
rhand -18.1938 30.3176
rfingers 7.12502
rthumb 8.08332 0.492228
lclavicle -4.05024e-014 1.00386e-014
lhumerus -15.1438 -12.5734 83.7361
lradius 39.682
lwrist 12.3455
lhand -14.2242 33.9208
lfingers 7.12502
lthumb 11.9129 63.5619
rfemur -36.2182 8.3224 14.3807
rtibia 21.7033
rfoot -1.52575 -2.31283
rtoes 40.2114
lfemur -12.8988 2.02247 -27.3282
ltibia 22.6422
lfoot -21.9111 2.40404
ltoes -4.27161
156
root 1.1823 18.4075 6.58471 11.225 62.4239 0.549967
lowerback -7.89559 -1.47165 -4.16052
upperback 1.74492 -1.58178 0.694865
thorax 6.40332 -0.95035 2.85729
lowerneck -19.465 1.54359 -0.196465
upperneck 18.1569 2.04886 0.754185
head 8.8847 1.04314 0.561411
rclavicle 3.75206e-014 -1.63003e-014
rhumerus -37.1865 -11.3118 -76.8503
rradius 38.1271
rwrist 13.7043
rhand -18.1538 30.5346
rfingers 7.12502
rthumb 8.12191 0.710713
lclavicle 3.75206e-014 -1.63003e-014
lhumerus -15.1632 -12.6845 83.8132
lradius 39.9948
lwrist 12.4452
lhand -14.24 33.8746
lfingers 7.12502
lthumb 11.8977 63.5166
rfemur -36.2241 8.79305 13.9487
rtibia 19.9053
rfoot -1.60682 -2.63385
rtoes 40.6772
lfemur -12.2725 2.04552 -27.3979
ltibia 22.0613
lfoot -21.7183 2.14063
ltoes -4.05969
157
root 1.27728 18.4062 6.62112 11.3645 62.7512 0.705444
lowerback -7.86649 -1.47837 -4.10883
upperback 1.75318 -1.59864 0.717524
thorax 6.39584 -0.957195 2.85012
lowerneck -19.3628 1.47238 -0.336901
upperneck 18.0829 1.97273 0.840584
head 8.83906 1.00755 0.602225
rclavicle 4.89259e-014 -1.98785e-015
rhumerus -37.2605 -11.3961 -76.7893
rradius 38.127
rwrist 13.8076
rhand -18.1204 30.7434
rfingers 7.12502
rthumb 8.15409 0.920713
lclavicle 4.89259e-014 -1.98785e-015
lhumerus -15.203 -12.8039 83.9133
lradius 40.299
lwrist 12.5288
lhand -14.2491 33.8531
lfingers 7.12502
lthumb 11.889 63.4955
rfemur -36.2136 9.31371 13.4918
rtibia 18.2003
rfoot -1.7919 -2.94375
rtoes 41.0466
lfemur -11.6066 2.07718 -27.4473
ltibia 21.4564
lfoot -21.5105 1.86637
ltoes -3.85303
158
root 1.3733 18.4039 6.6581 11.4518 63.0827 0.825878
lowerback -7.82274 -1.47931 -4.02918
upperback 1.77179 -1.61128 0.743124
thorax 6.38978 -0.96117 2.83103
lowerneck -19.2434 1.39724 -0.486491
upperneck 17.9736 1.8927 0.929618
head 8.77846 0.969743 0.644471
rclavicle -4.60062e-014 -5.71506e-015
rhumerus -37.3551 -11.4634 -76.7272
rradius 38.1388
rwrist 13.8815
rhand -18.1095 30.8801
rfingers 7.12502
rthumb 8.1647 1.05786
lclavicle -4.60062e-014 -5.71506e-015
lhumerus -15.2601 -12.9236 84.0262
lradius 40.5889
lwrist 12.5957
lhand -14.2755 33.8448
lfingers 7.12502
lthumb 11.8634 63.4888
rfemur -36.18 9.8869 13.0172
rtibia 16.6006
rfoot -2.0782 -3.24462
rtoes 41.2874
lfemur -10.9076 2.1097 -27.4726
ltibia 20.8403
lfoot -21.2975 1.5866
ltoes -3.5814
159
root 1.47023 18.4001 6.69591 11.5042 63.4149 0.919423
lowerback -7.77844 -1.48087 -3.93879
upperback 1.79953 -1.62578 0.77113
thorax 6.39292 -0.966016 2.8081
lowerneck -19.1282 1.32619 -0.6077
upperneck 17.865 1.81367 1.00113
head 8.71959 0.932388 0.676333
rclavicle -1.52567e-014 3.8266e-015
rhumerus -37.4565 -11.4632 -76.6931
rradius 38.1656
rwrist 13.8797
rhand -18.1607 30.8847
rfingers 7.12502
rthumb 8.11521 1.06055
lclavicle -1.52567e-014 3.8266e-015
lhumerus -15.3396 -13.0406 84.1457
lradius 40.861
lwrist 12.6642
lhand -14.3427 33.8432
lfingers 7.12502
lthumb 11.7987 63.4909
rfemur -36.1315 10.4946 12.5333
rtibia 15.1076
rfoot -2.45212 -3.53037
rtoes 41.4125
lfemur -10.1998 2.13478 -27.479
ltibia 20.2312
lfoot -21.091 1.31785
ltoes -3.29846
